<svg width="275" height="35" viewBox="0 0 275 35" fill="none" xmlns="http://www.w3.org/2000/svg">
<path d="M28.9636 17.6598C28.9636 27.9417 22.0772 34.1933 10.8124 34.1933H0V1.06434L10.8122 1.0439C22.077 1.00273 28.9636 7.29546 28.9636 17.6598ZM20.1448 17.6392C20.1448 12.4366 16.5268 9.26957 10.586 9.26957H8.57213V25.9065H10.6684C16.5474 25.9065 20.1448 22.7806 20.1448 17.6396" fill="black"/>
<path d="M42.0757 9.25146H33.2778V34.1933H42.0757V9.25146Z" fill="black"/>
<path d="M69.065 30.3275H56.6896L55.0042 34.1935H45.3838L60.7803 0.632568H64.9534L80.3703 34.1932H70.7296L69.065 30.3275ZM66.2694 23.891L62.8773 16.0348L59.4649 23.8902L66.2694 23.891Z" fill="black"/>
<path d="M105.158 25.9268V34.1935H83.6763V1.04395H92.474V25.9268H105.158Z" fill="black"/>
<path d="M139.425 9.42016L117.49 9.26964V34.1934H108.672V9.26964H100.716V1.04383L142.176 0.632568L139.425 9.42016Z" fill="black"/>
<path d="M146.287 30.3275H133.913L132.227 34.1935H122.606L137.984 0.674176L142.176 0.632568L157.593 34.1932H147.953L146.287 30.3275ZM143.492 23.891L140.1 16.0348L136.688 23.8902L143.492 23.891Z" fill="black"/>
<path d="M158.145 28.5796L163.469 23.3561C164.846 25.392 167.416 26.6263 170.191 26.6263C172.062 26.6263 173.891 25.9479 173.891 24.5908C173.891 22.8838 170.499 21.3826 167.251 19.9432C163.058 18.1329 159.46 15.378 159.46 10.3807C159.46 4.6432 164.908 0.551025 171.198 0.551025C176.255 0.551025 180.202 2.9364 181.497 6.20634L176.419 11.0999C175.432 9.35205 172.884 8.59172 171.301 8.59172C169.491 8.59172 168.197 9.51688 168.197 10.6482C168.197 12.1699 170.54 12.6629 174.117 14.1646C179.298 16.3444 182.73 19.5112 182.73 24.4056C182.73 30.7188 176.851 34.6463 170.211 34.6463C164.764 34.6463 159.81 32.2403 158.145 28.5802" fill="black"/>
<path d="M42.0752 0H33.2773V7.60009H42.0752V0Z" fill="#1467B0"/>
<path d="M204.165 32.7019C199.663 32.7019 195.94 31.2149 192.996 28.2411C190.051 25.2672 188.579 21.6277 188.579 17.3227C188.579 13.0177 190.051 9.37822 192.996 6.40435C195.94 3.43048 199.663 1.94354 204.165 1.94354C206.815 1.91836 209.424 2.60023 211.724 3.91897C213.952 5.17084 215.79 7.01654 217.032 9.25077L214.399 10.7802C213.461 8.96302 212.015 7.45761 210.237 6.44684C208.396 5.3704 206.297 4.81274 204.165 4.83303C200.456 4.83303 197.426 6.03674 195.077 8.44416C192.727 10.8516 191.552 13.8111 191.552 17.3227C191.552 20.8347 192.727 23.7944 195.077 26.2018C197.426 28.6093 200.456 29.8128 204.165 29.8124C206.297 29.8327 208.396 29.275 210.237 28.1986C212.015 27.1878 213.461 25.6824 214.399 23.8652L217.032 25.3522C215.807 27.5976 213.975 29.4527 211.745 30.7051C209.441 32.0353 206.824 32.7247 204.165 32.7019ZM240.177 32.1921L233.24 20.2966H224.889V32.1921H221.916V2.45335H233.807C234.981 2.43485 236.146 2.65718 237.231 3.10664C238.315 3.5561 239.296 4.22315 240.113 5.06662C240.956 5.88392 241.623 6.86538 242.072 7.95046C242.522 9.03554 242.744 10.2012 242.726 11.3755C242.748 13.3192 242.112 15.2131 240.92 16.7488C239.774 18.2818 238.155 19.3942 236.313 19.9141L243.574 32.1921H240.177ZM224.889 5.25729V17.4926H233.807C234.595 17.5029 235.376 17.3475 236.101 17.0364C236.825 16.7254 237.476 16.2657 238.011 15.687C238.574 15.1206 239.018 14.4474 239.317 13.7069C239.616 12.9664 239.764 12.1736 239.753 11.375C239.769 10.5727 239.622 9.77552 239.323 9.031C239.024 8.28648 238.578 7.60988 238.012 7.04161C237.473 6.4684 236.821 6.01369 236.098 5.70648C235.374 5.39927 234.594 5.24629 233.808 5.25729H224.889ZM275 2.45335V32.1921H272.027V6.95664L261.623 24.375H261.198L250.793 6.95664V32.1921H247.82V2.45335H251.468L261.411 19.099L271.353 2.45335H275Z" fill="#1467B0"/>
</svg>
